<svg version="1.1" id="Layer_1" xmlns="http://www.w3.org/2000/svg" xmlns:xlink="http://www.w3.org/1999/xlink" x="0px" y="0px"
	 width="100%" viewBox="0 0 236 236" enable-background="new 0 0 236 236" xml:space="preserve">
<path fill="#252525" opacity="1.000000" stroke="none" 
	d="
M32.000000,237.000000 
	C21.672520,237.000000 11.345038,237.000000 1.013168,237.000000 
	C1.008779,158.383743 1.008779,79.767479 1.008779,1.075609 
	C79.571640,1.075609 158.143387,1.075609 236.857559,1.075609 
	C236.857559,79.666481 236.857559,158.333206 236.857559,237.000000 
	C226.258316,237.000000 215.597824,237.000000 204.440369,236.555878 
	C203.279877,217.307343 197.634888,200.359436 186.445969,185.007538 
	C152.997864,139.114670 81.112793,139.846161 48.597179,186.507690 
	C37.976299,201.749176 32.852543,218.631271 32.000000,237.000000 
M79.043579,52.605701 
	C73.252602,61.341518 70.638847,70.916862 70.923965,81.420227 
	C71.431740,100.125885 83.538063,117.246498 101.282028,123.960693 
	C119.227776,130.751236 140.160141,125.968826 152.726089,112.207314 
	C171.315781,91.848953 169.191330,60.159512 148.068909,42.738106 
	C126.672462,25.090689 96.210228,29.208479 79.043579,52.605701 
z"/>
<path fill="#574E4F" opacity="1.000000" stroke="none" 
	d="
M32.468658,237.000000 
	C32.852543,218.631271 37.976299,201.749176 48.597179,186.507690 
	C81.112793,139.846161 152.997864,139.114670 186.445969,185.007538 
	C197.634888,200.359436 203.279877,217.307343 203.971710,236.555878 
	C146.979111,237.000000 89.958214,237.000000 32.468658,237.000000 
z"/>
<path fill="#564E4F" opacity="1.000000" stroke="none" 
	d="
M79.250038,52.309311 
	C96.210228,29.208479 126.672462,25.090689 148.068909,42.738106 
	C169.191330,60.159512 171.315781,91.848953 152.726089,112.207314 
	C140.160141,125.968826 119.227776,130.751236 101.282028,123.960693 
	C83.538063,117.246498 71.431740,100.125885 70.923965,81.420227 
	C70.638847,70.916862 73.252602,61.341518 79.250038,52.309311 
z"/>
</svg>